<?xml version="1.0" encoding="UTF-8"?>
<svg xmlns="http://www.w3.org/2000/svg" xmlns:xlink="http://www.w3.org/1999/xlink" width="410.6pt" height="460.75pt" viewBox="0 0 410.6 460.75" version="1.1">
<g id="surface1">
<path style=" stroke:none;fill-rule:evenodd;fill:rgb(13.299561%,12.199402%,12.199402%);fill-opacity:1;" d="M 410.53125 -608.980469 C 416.84375 -70.078125 -22.9375 454.699219 -653.546875 460.699219 C -1247.410156 466.347656 -1735.710938 -9.40625 -1735.488281 -609.511719 C -1735.261719 -1228.921875 -1237.839844 -1677.460938 -677.585938 -1684.898438 C -81.546875 -1692.828125 411.714844 -1212.171875 410.53125 -608.980469 "/>
<path style=" stroke:none;fill-rule:evenodd;fill:rgb(99.198914%,99.198914%,99.198914%);fill-opacity:1;" d="M -1348.21875 -501.460938 C -1249.699219 -528.101563 -1149.910156 -548.570313 -1048.929688 -563.449219 C -981.347656 -573.410156 -913.457031 -580.269531 -845.359375 -585.230469 C -819.109375 -587.140625 -792.753906 -587.660156 -766.5 -589.550781 C -758.214844 -590.148438 -755.707031 -585.789063 -752.835938 -579.671875 C -706.183594 -480.261719 -631.480469 -411.082031 -526.421875 -378.777344 C -399.871094 -339.867188 -283.941406 -364.253906 -180.550781 -446.832031 C -152.855469 -468.945313 -129.257813 -495.148438 -109.96875 -524.9375 C -105.070313 -532.496094 -100.328125 -534.605469 -91.207031 -532.699219 C 38.476563 -505.683594 164.597656 -466.710938 288.523438 -420.308594 C 307.621094 -413.15625 326.394531 -405.046875 345.796875 -398.855469 C 355.960938 -395.613281 356.554688 -390.335938 354.472656 -381.851563 C 343.949219 -338.90625 331.914063 -296.421875 316.332031 -255.011719 C 294.757813 -197.644531 269.726563 -141.894531 237.566406 -89.574219 C 234.480469 -84.550781 230.703125 -79.960938 227.242188 -75.167969 C 216.34375 -59.019531 199.964844 -48.449219 185.867188 -35.710938 C 145.753906 0.539063 102.863281 33.347656 57.136719 62.394531 C -24.308594 114.140625 -111.800781 151.914063 -204.84375 177.171875 C -261.277344 192.488281 -318.738281 202.324219 -376.917969 206.308594 C -533.734375 217.066406 -684.425781 191.433594 -828.421875 127.578125 C -896.054688 97.585938 -959.347656 60.191406 -1017.78125 15.089844 C -1076.839844 -30.511719 -1130.101563 -82.242188 -1176.769531 -140.871094 C -1258.769531 -243.878906 -1316.980469 -358.613281 -1351.160156 -485.652344 C -1352.699219 -491.382813 -1355.289063 -497.320313 -1348.21875 -501.460938 "/>
<path style=" stroke:none;fill-rule:evenodd;fill:rgb(62.399292%,61.599731%,61.599731%);fill-opacity:1;" d="M -1348.21875 -501.460938 C -1351.238281 -497.554688 -1349.929688 -493.59375 -1348.820313 -489.359375 C -1325.820313 -401.542969 -1290.738281 -318.722656 -1243.410156 -241.429688 C -1185.660156 -147.132813 -1113.601563 -65.261719 -1026.621094 3.546875 C -909.375 96.296875 -777.414063 156.933594 -631.339844 187.007813 C -583.867188 196.777344 -535.730469 201.902344 -487.171875 204.109375 C -363.195313 209.75 -243.085938 191.066406 -126.5625 149.050781 C -55.492188 123.417969 11.261719 89.246094 74.183594 47.214844 C 123.839844 14.050781 168.609375 -24.941406 213.230469 -64.265625 C 217.660156 -68.167969 222.566406 -71.542969 227.242188 -75.167969 C 218.765625 -53.21875 203.855469 -35.144531 190.792969 -16.089844 C 149.355469 44.421875 100.332031 98.554688 46.847656 148.488281 C -13.824219 205.140625 -80.664063 253.570313 -153.167969 294.21875 C -237.402344 341.4375 -326.457031 376.011719 -420.351563 398.300781 C -476.046875 411.519531 -532.375 420.046875 -589.570313 424.046875 C -614.132813 425.757813 -638.757813 426.296875 -663.238281 426.933594 C -697.058594 427.816406 -731.117188 425.210938 -764.871094 421.972656 C -858.402344 412.992188 -949.15625 391.453125 -1036.898438 357.777344 C -1149.519531 314.539063 -1251.859375 253.988281 -1343.269531 175.054688 C -1514.769531 26.933594 -1627.21875 -157.167969 -1681.179688 -377.238281 C -1683.988281 -388.714844 -1680.75 -392.671875 -1670.550781 -396.546875 C -1569.921875 -434.808594 -1468.03125 -469.148438 -1364.078125 -497.285156 C -1358.800781 -498.714844 -1353.511719 -500.074219 -1348.21875 -501.460938 "/>
</g>
</svg>
